<?xml version="1.0" encoding="UTF-8"?><svg xmlns="http://www.w3.org/2000/svg" width="1440" height="1440" viewBox="0 0 1440 1440"><g id="a"><rect x="85.54" y="74.85" width="1268.91" height="1268.91" rx="252.36" ry="252.36" fill="#eff4fb"/></g><g id="b"><g><path d="M621.4,443.36v224.1c0,8.32,2.37,14.26,7.11,17.83,4.74,3.57,11.27,5.36,19.58,5.36,5.33,0,10.46-.62,15.4-1.85,4.94-1.23,9.55-2.69,13.84-4.38l14.81,41.12c-7.02,3.64-15.46,6.82-25.33,9.55-9.87,2.73-21.37,4.09-34.49,4.09-24.94,0-43.26-7.18-54.95-21.53-11.69-14.35-17.54-33.62-17.54-57.78v-174.41h-61v-42.09h122.57Z" fill="#231f20"/><path d="M836.92,518.77c21.31,0,39.43,4.55,54.37,13.64,14.94,9.1,26.37,21.86,34.3,38.29,7.92,16.44,11.89,35.69,11.89,57.78,0,34.56-8.84,61.65-26.5,81.26-17.67,19.62-42.35,29.42-74.05,29.42s-56.38-9.68-74.05-29.04c-17.67-19.36-26.5-46.44-26.5-81.26,0-21.95,4-41.18,11.99-57.68,7.99-16.5,19.49-29.36,34.49-38.58,15-9.22,33.03-13.84,54.08-13.84Zm0,45.41c-12.6,0-21.92,5.16-27.96,15.49s-9.06,26.73-9.06,49.21,3.02,39.43,9.06,49.69c6.04,10.26,15.36,15.4,27.96,15.4s21.92-5.13,27.96-15.4c6.04-10.26,9.06-26.96,9.06-50.08s-3.02-38.65-9.06-48.91c-6.04-10.26-15.36-15.39-27.96-15.39Z" fill="#231f20"/><path d="M596.46,955.13c10.26,0,18.54-1.62,24.85-4.87,6.3-3.25,9.45-8.12,9.45-14.62,0-4.41-1.24-8.12-3.7-11.11-2.47-2.99-7.21-5.85-14.23-8.57-7.02-2.73-17.41-5.97-31.18-9.74-18.97-5.07-34.4-12.34-46.28-21.83-11.89-9.48-17.83-23.38-17.83-41.7s7.7-33.71,23.09-45.79c15.39-12.08,37.64-18.12,66.74-18.12,18.45,0,34.52,2.37,48.23,7.11,13.71,4.74,25.56,10.75,35.56,18.03l-24.55,36.25c-8.57-5.33-17.8-9.58-27.67-12.77-9.87-3.18-19.81-4.77-29.82-4.77-19.75,0-29.62,5.33-29.62,15.98,0,3.51,1.27,6.53,3.8,9.06s7.31,5.13,14.32,7.79c7.02,2.66,17.28,5.94,30.79,9.84,13.38,3.77,25.04,8.12,34.98,13.05,9.94,4.94,17.64,11.53,23.09,19.78s8.18,19.13,8.18,32.64c0,15.07-4.48,27.71-13.45,37.9-8.96,10.2-20.85,17.83-35.66,22.9-14.81,5.07-31.05,7.6-48.72,7.6-20.01,0-37.68-2.86-53-8.57-15.33-5.72-28.39-13.25-39.17-22.61l30.98-34.69c8.05,6.24,17.18,11.43,27.38,15.59,10.2,4.16,21.34,6.24,33.42,6.24Z" fill="#231f20"/><path d="M921.5,932.92c0,7.79,1.07,13.45,3.21,16.96s5.62,6.17,10.43,7.99l-12.67,40.53c-12.21-1.17-22.51-3.87-30.89-8.09-8.38-4.22-14.97-10.62-19.78-19.2-7.93,9.48-18.06,16.53-30.4,21.14-12.34,4.61-24.94,6.92-37.8,6.92-21.31,0-38.29-6.08-50.96-18.22-12.67-12.15-19-27.77-19-46.87,0-22.47,8.8-39.82,26.41-52.03,17.6-12.21,42.38-18.32,74.34-18.32h27.87v-7.79c0-21.17-13.64-31.76-40.92-31.76-6.63,0-15.14,.94-25.53,2.83-10.4,1.88-20.79,4.58-31.18,8.09l-14.23-40.92c13.38-5.07,27.31-8.9,41.8-11.5,14.48-2.6,27.44-3.9,38.88-3.9,30.79,0,53.56,6.27,68.3,18.8,14.74,12.54,22.12,30.63,22.12,54.27v81.07Zm-96.66,22.22c6.63,0,13.57-1.98,20.85-5.95,7.27-3.96,12.79-9.58,16.56-16.86v-33.52h-15.2c-17.15,0-29.75,2.63-37.8,7.89-8.06,5.26-12.08,12.96-12.08,23.09,0,7.93,2.44,14.13,7.31,18.61,4.87,4.48,11.66,6.72,20.36,6.72Z" fill="#231f20"/></g><path d="M970.5,252.69c73.52,0,125.12,13.58,154.83,40.72,29.7,27.15,41.75,73.92,36.16,140.31l-11.99,140.31c-2.13,24.86,1.33,44.32,10.39,58.38,9.05,14.07,22.17,23.96,39.36,29.68,17.18,5.73,37.09,8.59,59.73,8.59v125.59c-22.38,0-42.22,2.87-59.53,8.58-17.32,5.73-30.5,15.62-39.56,29.68-9.06,14.07-12.52,33.53-10.39,58.38l11.99,139.33c6.12,67.04-5.79,114.14-35.76,141.29-29.97,27.14-81.71,40.72-155.23,40.72v-107.93c24.5,0,43.55-4.17,57.14-12.51,13.58-8.34,19.31-24.94,17.18-49.8l-12.39-144.73c-3.2-36.96,.06-66.64,9.79-89.04,9.72-22.4,24.57-39.57,44.55-51.51,19.98-11.94,43.42-20.36,70.32-25.27-28.51-5.23-52.68-13.74-72.52-25.51-19.85-11.77-34.3-28.86-43.35-51.27-9.06-22.4-11.99-52.08-8.79-89.04l12.39-144.73c2.13-24.85-3.66-41.46-17.38-49.8-13.72-8.34-32.7-12.51-56.94-12.51v-107.93Z" fill="#00a2dd"/><path d="M469.51,252.69v107.93c-24.24,0-43.15,4.17-56.74,12.51-13.58,8.34-19.45,24.94-17.58,49.8l12.39,144.73c3.2,36.63-.07,66.23-9.79,88.8-9.73,22.57-24.51,39.82-44.35,51.76-19.85,11.94-43.22,20.36-70.12,25.27,28.5,5.24,52.6,13.74,72.32,25.51,19.71,11.77,34.09,28.78,43.15,51.02,9.05,22.25,11.99,52,8.79,89.29l-12.39,144.73c-1.87,24.86,4,41.46,17.58,49.8,13.58,8.34,32.5,12.51,56.74,12.51v107.93c-73.52,0-125.13-13.66-154.83-40.96-29.7-27.31-41.75-74-36.16-140.06l11.99-140.31c2.13-24.85-1.27-44.31-10.19-58.38-8.93-14.06-22.04-23.96-39.36-29.68-17.32-5.72-37.3-8.58-59.93-8.58v-125.59c22.38,0,42.22-2.86,59.53-8.59,17.31-5.72,30.5-15.61,39.56-29.68,9.05-14.06,12.52-33.52,10.39-58.38l-11.99-139.33c-5.86-67.37,6.12-114.55,35.96-141.54,29.83-26.98,81.51-40.47,155.03-40.47Z" fill="#00a2dd"/></g></svg>